<svg xmlns="http://www.w3.org/2000/svg" fill="white" width="16" height="16" viewBox="0 0 90 90">
	<path d="M 75.116 0 H 14.884 C 6.677 0 0 6.677 0 14.884 v 60.232 C 0 83.323 6.677 90 14.884 90 h 60.232 C 83.323 90 90 83.323 90 75.116 V 14.884 C 90 6.677 83.323 0 75.116 0 z M 76.022 69.496 H 54.754 c -1.226 3.325 -4.418 5.706 -8.163 5.706 s -6.936 -2.381 -8.163 -5.706 H 13.977 c -1.657 0 -3 -1.343 -3 -3 s 1.343 -3 3 -3 h 24.451 c 1.226 -3.325 4.417 -5.707 8.163 -5.707 s 6.937 2.382 8.163 5.707 h 21.268 c 1.657 0 3 1.343 3 3 S 77.68 69.496 76.022 69.496 z M 76.022 48 H 35.135 c -1.226 3.325 -4.417 5.706 -8.163 5.706 S 20.036 51.325 18.81 48 h -4.832 c -1.657 0 -3 -1.343 -3 -3 c 0 -1.657 1.343 -3 3 -3 h 4.832 c 1.226 -3.325 4.417 -5.707 8.163 -5.707 s 6.937 2.382 8.163 5.707 h 40.888 c 1.657 0 3 1.343 3 3 C 79.022 46.657 77.68 48 76.022 48 z M 76.022 26.504 h -8.238 c -1.226 3.325 -4.418 5.707 -8.163 5.707 s -6.936 -2.382 -8.162 -5.707 H 13.977 c -1.657 0 -3 -1.343 -3 -3 s 1.343 -3 3 -3 h 37.482 c 1.226 -3.325 4.417 -5.707 8.162 -5.707 s 6.937 2.382 8.163 5.707 h 8.238 c 1.657 0 3 1.343 3 3 S 77.68 26.504 76.022 26.504 z" style="stroke: none; stroke-width: 1; stroke-dasharray: none; stroke-linecap: butt; stroke-linejoin: miter; stroke-miterlimit: 10; fill-rule: nonzero; opacity: 1;" transform=" matrix(1 0 0 1 0 0) " stroke-linecap="round" />
</svg>