<svg
   width="2666.6667"
   height="2666.6667"
   viewBox="560 550 1550 1570"
   xmlns="http://www.w3.org/2000/svg"><g
     transform="matrix(1.3333333,0,0,-1.3333333,0,2666.6667)"><g
       transform="scale(0.1)"><path
         d="m 7093.37,7866.1 c -1073.89,0 -1947.5,874 -1947.5,1947.9 0,1073.9 873.61,1947.9 1947.5,1947.9 1074.33,0 1947.93,-874 1947.93,-1947.9 0,-1073.9 -873.6,-1947.9 -1947.93,-1947.9 z m 0,4460.9 c -1385.41,0 -2512.57,-1127.6 -2512.57,-2513 0,-1220.5 1979.46,-3758.6 2512.57,-4420.4 533.54,661.8 2513.01,3199.9 2513.01,4420.4 0,1385.4 -1127.17,2513 -2513.01,2513"
         style="fill:rgb(245, 85, 85);fill-opacity:1;fill-rule:nonzero;stroke:none"
         id="path36" /><path
         d="m 7093.45,12326.8 c 1385.58,0 2512.84,-1127.2 2512.84,-2512.8 0,-1220.4 -1979.56,-3758.7 -2512.84,-4420.3 C 6560.16,6055.3 4580.6,8593.6 4580.6,9814 c 0,1385.6 1127.26,2512.8 2512.85,2512.8 z m 0,-7373.1 c 50.48,0 98.36,22.4 130.74,61.1 111.19,132.9 2723.02,3272.9 2723.02,4799.2 0,1573.5 -1280.19,2853.7 -2853.76,2853.7 -1573.58,0 -2853.77,-1280.2 -2853.77,-2853.7 0,-1526.3 2611.83,-4666.3 2723.02,-4799.2 32.38,-38.7 80.26,-61.1 130.75,-61.1"
         style="fill:rgb(245, 85, 85);fill-opacity:1;fill-rule:nonzero;stroke:none"
         id="path40" /><path
         d="m 5486.55,9814 c 0,886 720.86,1606.9 1606.9,1606.9 886.05,0 1606.9,-720.9 1606.9,-1606.9 0,-886.1 -720.85,-1606.9 -1606.9,-1606.9 -886.04,0 -1606.9,720.8 -1606.9,1606.9 z m 3554.72,0 c 0,1074 -873.79,1947.8 -1947.82,1947.8 -1074.04,0 -1947.82,-873.8 -1947.82,-1947.8 0,-1074 873.78,-1947.9 1947.82,-1947.9 1074.03,0 1947.82,873.9 1947.82,1947.9"
         style="fill:rgb(245, 85, 85);fill-opacity:1;fill-rule:nonzero;stroke:none"
         id="path42" /><path
         d="m 13851.7,12675.6 c -717.7,0 -1301.1,583.4 -1301.1,1301.1 0,717.2 583.4,1301 1301.1,1301 717.2,0 1300.6,-583.8 1300.6,-1301 0,-717.7 -583.4,-1301.1 -1300.6,-1301.1 z m 0,2837.3 c -847.2,0 -1536.3,-689.1 -1536.3,-1536.2 0,-661.9 1010.4,-2058.4 1536.3,-2713.8 525.8,655.4 1536.3,2051.9 1536.3,2713.8 0,847.1 -689.6,1536.2 -1536.3,1536.2"
         style="fill:#29333f;fill-opacity:1;fill-rule:nonzero;stroke:none"
         id="path38" /><path
         d="m 13851.5,15512.8 c 847.1,0 1536.3,-689.2 1536.3,-1536.3 0,-661.7 -1010.5,-2058.1 -1536.3,-2713.8 -525.9,655.7 -1536.3,2052.1 -1536.3,2713.8 0,847.1 689.2,1536.3 1536.3,1536.3 z m 0,-4689.8 c 50.5,0 98.3,22.4 130.7,61.1 71.3,85.2 1746.5,2099.3 1746.5,3092.4 0,1035.1 -842.1,1877.2 -1877.2,1877.2 -1035.1,0 -1877.2,-842.1 -1877.2,-1877.2 0,-993.1 1675.1,-3007.2 1746.4,-3092.4 32.4,-38.7 80.3,-61.1 130.8,-61.1"
         style="fill:#29333f;fill-opacity:1;fill-rule:nonzero;stroke:none"
         id="path44" /><path
         d="m 12891.4,13976.5 c 0,529.3 430.7,960 960.1,960 529.4,0 960,-430.7 960,-960 0,-529.4 -430.6,-960.1 -960,-960.1 -529.4,0 -960.1,430.7 -960.1,960.1 z m 2261.1,0 c 0,717.3 -583.7,1300.9 -1301,1300.9 -717.4,0 -1301,-583.6 -1301,-1300.9 0,-717.4 583.6,-1301 1301,-1301 717.3,0 1301,583.6 1301,1301"
         style="fill:#29333f;fill-opacity:1;fill-rule:nonzero;stroke:none"
         id="path46" /><path
         d="m 13466.2,8207.1 h -1334 c -581.9,0 -1055.3,473.4 -1055.3,1055.3 0,581.9 473.4,1055.3 1055.3,1055.3 h 1753.3 c 94.2,0 170.5,76.3 170.5,170.5 0,94.1 -76.3,170.4 -170.5,170.4 h -1753.3 c -769.8,0 -1396.2,-626.3 -1396.2,-1396.2 0,-769.9 626.4,-1396.3 1396.2,-1396.3 h 1334 c 922.9,0 1673.7,-750.8 1673.7,-1673.6 0,-922.9 -750.8,-1673.7 -1673.7,-1673.7 H 7093.45 c -94.15,0 -170.47,-76.3 -170.47,-170.4 0,-94.2 76.32,-170.5 170.47,-170.5 h 6372.75 c 1110.8,0 2014.6,903.8 2014.6,2014.6 0,1110.8 -903.8,2014.6 -2014.6,2014.6"
         style="fill:#29333f;fill-opacity:1;fill-rule:nonzero;stroke:#29333f; stroke-width:150px;"
         id="path48" /></g></g></svg>
