<?xml version="1.0" encoding="utf-8"?>
<!-- Svg Vector Icons : http://www.onlinewebfonts.com/icon -->
<!DOCTYPE svg PUBLIC "-//W3C//DTD SVG 1.1//EN" "http://www.w3.org/Graphics/SVG/1.1/DTD/svg11.dtd">
<svg version="1.1" xmlns="http://www.w3.org/2000/svg" xmlns:xlink="http://www.w3.org/1999/xlink" x="0px" y="0px" viewBox="0 0 1000 1000" enable-background="new 0 0 1000 1000" xml:space="preserve">
<metadata> Svg Vector Icons : http://www.onlinewebfonts.com/icon </metadata>
<g><path d="M642.1,588.3c-4.6-57.7,189.9-56.2,189.9-56.2s-151-33-221.8,25.8c-89.6,74.4,45.6,121.6,76,151.9c30.4,30.4,33.4,83.6-100.3,86.6c-133.7,3-227.9-6.1-227.9-6.1s-26.5,110.5-50.1,168.7c0,0,256.8,7.6,360.1-16.7C771.2,918,880.6,836,833.5,741.8C786.4,647.6,646.6,646.1,642.1,588.3z"/><path d="M265.3,158.3C124.3,158.3,10,272.6,10,413.6c0,141,203.6,252.2,255.3,533.4c72.9-276.6,255.3-392.4,255.3-533.4S406.2,158.3,265.3,158.3z M265.3,548.8c-74.7,0-135.2-60.5-135.2-135.2s60.5-135.2,135.2-135.2c74.7,0,135.2,60.5,135.2,135.2S339.9,548.8,265.3,548.8z"/><path d="M990,191c0-83.5-67.7-151.2-151.2-151.2c-83.5,0-151.2,67.7-151.2,151.2s120.6,149.4,151.2,315.9C882,343.1,990,274.5,990,191z M758.7,191c0-44.2,35.9-80.1,80.1-80.1c44.2,0,80.1,35.9,80.1,80.1s-35.9,80.1-80.1,80.1C794.6,271.1,758.7,235.2,758.7,191z"/></g>
</svg>